<svg xmlns="http://www.w3.org/2000/svg" version="1.1" xmlns:xlink="http://www.w3.org/1999/xlink" style="display: block; margin: auto;" width="700" height="490">
<title>Bandeira Nacional</title>
<desc>Desenho da bandeira do Brasil regulamentado pela Lei n° 5.700, de 1° de setembro de 1971, incluindo a alteração dada pela Lei n° 8.421, de 11 de maio de 1992. As cores seguem a paleta prioritária de cores do sistema de identidade visual do Ministério da Defesa, que consta no Manual de Identidade Visual do Ministério da Defesa, na edição de janeiro de 2015.</desc>
<rect x="0" y="0" width="700" height="490" fill="rgb(0,112,36)" stroke-width="0" />
<polygon points="59.5,245 350,59.5 641,245 350,431" fill="rgb(247,198,0)" stroke-width="0" />
<circle cx="350" cy="245" r="122.5" fill="rgb(33,42,116)" stroke-width="0" />
<path d="M 231.42328 214.24594 A 122.5 122.5 0 0 1 237.95244 195.48641 A 297.5 297.5 0 0 1 471.29284 262.1551 A 122.5 122.5 0 0 1 466.92577 281.53236 A 280 280 0 0 0 231.42328 214.24594 Z" fill="rgb(255,255,255)" stroke-width="0" />
<defs>
<path id="faixa" d="M 232.29104 211.07581 A 282.975 282.975 0 0 1 467.86378 278.3823" />
</defs>
<text text-anchor="middle" fill="rgb(0,112,36)" font-family="Verdana" font-weight="600" font-size="16" letter-spacing="1" word-spacing="3">
<textPath xlink:href="#faixa" startOffset="50%">ORDEM <tspan font-size="14">E</tspan> PROGRESSO</textPath>
</text>
<g fill="rgb(255,255,255)" fill-rule="nonzero" stroke="rgb(255,255,255)" stroke-width="1">
<polygon points="386.3825,202.6325 383.29663,212.12984 391.37555,206.26016 381.38945,206.26016 389.46837,212.12984" />
<polygon points="250.1625,217.7 247.07663,227.19734 255.15555,221.32766 245.16945,221.32766 253.24837,227.19734" />
<polygon points="304.675,244.3 302.10344,252.21445 308.83587,247.32305 300.51413,247.32305 307.24656,252.21445" />
<polygon points="382.095,234.64 380.03775,240.97156 385.4237,237.05844 378.7663,237.05844 384.15225,240.97156" />
<polygon points="260.085,269.15 256.99913,278.64734 265.07805,272.77766 255.09195,272.77766 263.17087,278.64734" />
<polygon points="246.365,280.6825 243.79344,288.59695 250.52587,283.70555 242.20413,283.70555 248.93656,288.59695" />
<polygon points="271.9675,263.9875 270.52743,268.41959 274.29759,265.68041 269.63741,265.68041 273.40757,268.41959" />
<polygon points="286.1775,281.54 283.60594,289.45445 290.33837,284.56305 282.01663,284.56305 288.74906,289.45445" />
<polygon points="282.87,295.155 280.81275,301.48656 286.1987,297.57344 279.5413,297.57344 284.92725,301.48656" />
<polygon points="301,305.9 297.91413,315.39734 305.99305,309.52766 296.00695,309.52766 304.08587,315.39734" />
<polygon points="349.755,259.6125 347.18344,267.52695 353.91587,262.63555 345.59413,262.63555 352.32656,267.52695" />
<polygon points="337.995,273.2275 335.93775,279.55906 341.3237,275.64594 334.6663,275.64594 340.05225,279.55906" />
<polygon points="344.7325,281.26 343.29243,285.69209 347.06259,282.95291 342.40241,282.95291 346.17257,285.69209" />
<polygon points="350,295.2425 346.91413,304.73984 354.99305,298.87016 345.00695,298.87016 353.08587,304.73984" />
<polygon points="363.5975,270.8825 361.02594,278.79695 367.75837,273.90555 359.43663,273.90555 366.16906,278.79695" />
<polygon points="435.75,281.7675 432.66413,291.26484 440.74305,285.39516 430.75695,285.39516 438.83587,291.26484" />
<polygon points="453.0225,284.4975 450.96525,290.82906 456.3512,286.91594 449.6938,286.91594 455.07975,290.82906" />
<polygon points="440.405,294.8925 437.83344,302.80695 444.56587,297.91555 436.24413,297.91555 442.97656,302.80695" />
<polygon points="433.1775,304.08 430.60594,311.99445 437.33837,307.10305 429.01663,307.10305 435.74906,311.99445" />
<polygon points="423.1325,310.9575 421.07525,317.28906 426.4612,313.37594 419.8038,313.37594 425.18975,317.28906" />
<polygon points="411.25,310.2225 409.19275,316.55406 414.5787,312.64094 407.9213,312.64094 413.30725,316.55406" />
<polygon points="411.25,321.1075 408.67844,329.02195 415.41087,324.13055 407.08913,324.13055 413.82156,329.02195" />
<polygon points="411.3725,333.2525 409.31525,339.58406 414.7012,335.67094 408.0438,335.67094 413.42975,339.58406" />
<polygon points="397.04,312.4275 394.98275,318.75906 400.3687,314.84594 393.7113,314.84594 399.09725,318.75906" />
<polygon points="386.3825,323.5575 383.81094,331.47195 390.54337,326.58055 382.22163,326.58055 388.95406,331.47195" />
<polygon points="376.5825,309.4875 374.52525,315.81906 379.9112,311.90594 373.2538,311.90594 378.63975,315.81906" />
<polygon points="350.245,338.1875 349.21638,341.35328 351.90935,339.39672 348.58065,339.39672 351.27362,341.35328" />
</g>
</svg>